<svg width="200" height="400" viewBox="0 0 200 400" xmlns="http://www.w3.org/2000/svg">
  <!-- Body Outline (Back) -->
  <g id="body-back">
    <!-- Head -->
    <circle cx="100" cy="30" r="20" fill="#ddd" stroke="#999"/>
    
    <!-- Traps -->
    <path id="traps" d="M80,55 L120,55 L130,70 L100,80 L70,70 Z" fill="#eee" stroke="#333"/>
    
    <!-- Lats -->
    <path id="lats" d="M70,80 L130,80 L120,130 L80,130 Z" fill="#eee" stroke="#333"/>
    
    <!-- Lower Back -->
    <path id="lower_back" d="M85,130 L115,130 L115,150 L85,150 Z" fill="#eee" stroke="#333"/>
    
    <!-- Shoulders (Back) -->
    <path id="shoulders" d="M50,60 L70,60 L70,80 L50,70 Z M150,60 L130,60 L130,80 L150,70 Z" fill="#eee" stroke="#333"/>
    
    <!-- Triceps -->
    <path id="triceps" d="M50,70 L70,80 L65,100 L45,90 Z M150,70 L130,80 L135,100 L155,90 Z" fill="#eee" stroke="#333"/>
    
    <!-- Glutes -->
    <path id="glutes" d="M75,150 L125,150 L120,190 L80,190 Z" fill="#eee" stroke="#333"/>
    
    <!-- Hamstrings -->
    <path id="hamstrings" d="M80,190 L120,190 L115,240 L85,240 Z" fill="#eee" stroke="#333"/>
    
    <!-- Calves -->
    <path id="calves" d="M85,250 L115,250 L110,290 L90,290 Z" fill="#eee" stroke="#333"/>
  </g>
</svg>
